<?xml version="1.0" ?><svg id="Flat" viewBox="0 0 512 512" xmlns="http://www.w3.org/2000/svg"><title/><g><g><path d="M43.872,230.057H172.829a0,0,0,0,1,0,0v64a0,0,0,0,1,0,0h-176a0,0,0,0,1,0,0V277.1A47.043,47.043,0,0,1,43.872,230.057Z" fill="#fbb8b0" transform="translate(333.63 143.872) rotate(82.528)"/><path d="M120.349,504,112.9,444.146,34.006,334.8,9.995,151.711,8,136.5a47.343,47.343,0,0,1,53.748,40.7l17.6,134.189h0l2.181-2.84a32,32,0,0,1,43.51-6.874l30.653,21.079A80,80,0,0,1,190.3,385.486l1.919,48.258L199.67,504Z" fill="#ffd4cf"/><path d="M340.5,229.7h176a0,0,0,0,1,0,0v64a0,0,0,0,1,0,0H387.542A47.043,47.043,0,0,1,340.5,246.658V229.7A0,0,0,0,1,340.5,229.7Z" fill="#fbb8b0" transform="translate(743.697 -129.129) rotate(97.472)"/><path d="M391.321,504l7.453-59.854L477.663,334.8l24.012-183.085,2-15.213a47.342,47.342,0,0,0-53.748,40.7l-17.6,134.189h0l-2.181-2.84a32,32,0,0,0-43.51-6.874l-30.653,21.079a80,80,0,0,0-34.607,62.739l-1.918,48.258L312,504Z" fill="#ffd4cf"/></g><path d="M331.789,8A84.154,84.154,0,0,0,256,55.906,84.154,84.154,0,0,0,180.211,8C133.7,8,96,46.056,96,93c0,110.5,160,187,160,187S416,203.5,416,93C416,46.056,378.3,8,331.789,8Z" fill="#2a75e6"/><path d="M107.305,144C143.782,226.345,256,280,256,280s112.218-53.655,148.7-136Z" fill="#f9d549"/></g></svg>